<?xml version="1.0" encoding="UTF-8" standalone="no"?>
<!-- Created with Inkscape (http://www.inkscape.org/) -->

<svg
   xmlns:dc="http://purl.org/dc/elements/1.1/"
   xmlns:cc="http://creativecommons.org/ns#"
   xmlns:rdf="http://www.w3.org/1999/02/22-rdf-syntax-ns#"
   xmlns:svg="http://www.w3.org/2000/svg"
   xmlns="http://www.w3.org/2000/svg"
   xmlns:sodipodi="http://sodipodi.sourceforge.net/DTD/sodipodi-0.dtd"
   xmlns:inkscape="http://www.inkscape.org/namespaces/inkscape"
   width="210mm"
   height="297mm"
   viewBox="0 0 210 297"
   version="1.1"
   id="svg8"
   inkscape:version="0.92.2 (5c3e80d, 2017-08-06)"
   sodipodi:docname="pint.svg">
  <defs
     id="defs2" />
  <sodipodi:namedview
     id="base"
     pagecolor="#ffffff"
     bordercolor="#666666"
     borderopacity="1.0"
     inkscape:pageopacity="0.0"
     inkscape:pageshadow="2"
     inkscape:zoom="0.35"
     inkscape:cx="400"
     inkscape:cy="560"
     inkscape:document-units="mm"
     inkscape:current-layer="layer1"
     showgrid="false"
     inkscape:window-width="1366"
     inkscape:window-height="705"
     inkscape:window-x="-8"
     inkscape:window-y="-8"
     inkscape:window-maximized="1" />
  <metadata
     id="metadata5">
    <rdf:RDF>
      <cc:Work
         rdf:about="">
        <dc:format>image/svg+xml</dc:format>
        <dc:type
           rdf:resource="http://purl.org/dc/dcmitype/StillImage" />
        <dc:title></dc:title>
      </cc:Work>
    </rdf:RDF>
  </metadata>
  <g
     inkscape:label="Layer 1"
     inkscape:groupmode="layer"
     id="layer1">
    <path
       id="path837"
       d="m 105.43923,111.09494 c -20.967296,0 -31.540437,15.03172 -31.540437,27.56952 0,7.58994 2.873622,14.34186 9.036015,16.85586 1.010861,0.41648 1.916781,0.0175 2.210009,-1.10341 0.203744,-0.77165 0.686765,-2.72551 0.901282,-3.54189 0.294798,-1.10657 0.180589,-1.49236 -0.635837,-2.46004 -1.776335,-2.09426 -2.913747,-4.80734 -2.913747,-8.65328 0,-11.15184 8.344619,-21.13545 21.728125,-21.13545 11.85107,0 18.36229,7.24114 18.36229,16.90995 0,12.72601 -5.63154,23.4658 -13.99009,23.4658 -4.61758,0 -8.07151,-3.81655 -6.96649,-8.50046 1.3257,-5.59141 3.8953,-11.62261 3.8953,-15.66139 0,-3.61136 -1.93993,-6.62383 -5.950985,-6.62383 -4.719411,0 -8.511296,4.88299 -8.511296,11.42195 0,4.16536 1.40749,6.98343 1.40749,6.98343 0,0 -4.828983,20.46411 -5.676258,24.04765 -1.685283,7.13776 -0.253092,15.8852 -0.131184,16.76796 0.07099,0.52496 0.74387,0.6513 1.049446,0.25606 0.43368,-0.56929 6.057453,-7.50816 7.96651,-14.44371 0.541705,-1.96156 3.103574,-12.12878 3.103574,-12.12878 1.534043,2.9261 6.015813,5.4972 10.781543,5.4972 14.18454,0 23.81016,-12.93128 23.81016,-30.24095 0.001,-13.09181 -11.08558,-25.28231 -27.93542,-25.28231 z"
       inkscape:connector-curvature="0"
       style="fill:#dfc475;fill-opacity:1;stroke-width:1.54329932" />
  </g>
</svg>
